<svg xmlns="http://www.w3.org/2000/svg" version="1.1" width="1200px" height="1200px" style="shape-rendering:geometricPrecision; text-rendering:geometricPrecision; image-rendering:optimizeQuality; fill-rule:evenodd; clip-rule:evenodd" xmlns:xlink="http://www.w3.org/1999/xlink">
<g><path style="opacity:0.999" fill="#ff4500" d="M 565.5,-0.5 C 588.5,-0.5 611.5,-0.5 634.5,-0.5C 825.673,14.8079 977.84,99.1413 1091,252.5C 1153.8,342.716 1189.96,442.716 1199.5,552.5C 1199.5,584.167 1199.5,615.833 1199.5,647.5C 1180.96,831.142 1098.29,977.975 951.5,1088C 860.474,1152.74 759.141,1189.9 647.5,1199.5C 615.833,1199.5 584.167,1199.5 552.5,1199.5C 374.047,1181.88 229.88,1102.88 120,962.5C 47.727,865.202 7.56038,755.869 -0.5,634.5C -0.5,611.5 -0.5,588.5 -0.5,565.5C 12.2156,396.573 81.549,256.073 207.5,144C 310.75,56.9041 430.083,8.73743 565.5,-0.5 Z"/></g>
<g><path style="opacity:1" fill="#fffefe" d="M 839.5,238.5 C 876.991,235.847 900.824,252.513 911,288.5C 914.239,316.178 904.405,337.678 881.5,353C 849.661,368.412 822.494,362.579 800,335.5C 793.091,325.19 789.257,313.857 788.5,301.5C 744.881,291.91 701.215,282.576 657.5,273.5C 644.506,336.154 631.506,398.821 618.5,461.5C 691.401,463.974 759.734,482.807 823.5,518C 833.005,523.918 842.338,530.085 851.5,536.5C 884.385,507.51 920.051,503.676 958.5,525C 994.434,550.056 1006.93,583.889 996,626.5C 989.066,647.425 976.232,663.592 957.5,675C 955.35,676.411 953.016,677.245 950.5,677.5C 956.658,738.192 939.158,790.859 898,835.5C 861.599,872.968 818.766,900.801 769.5,919C 669.686,954.097 568.686,957.764 466.5,930C 411.613,914.567 362.946,888.233 320.5,851C 269.564,804.372 246.564,746.539 251.5,677.5C 223.741,663.212 207.241,640.545 202,609.5C 199.507,561.676 220.673,529.51 265.5,513C 297.527,505.548 325.694,512.715 350,534.5C 422.106,486.754 501.606,462.421 588.5,461.5C 588.425,457.103 588.925,452.77 590,448.5C 604.129,382.187 618.129,315.854 632,249.5C 636.067,243.05 641.901,240.216 649.5,241C 697.202,251.44 744.869,261.94 792.5,272.5C 793.772,272.43 794.938,272.097 796,271.5C 805.744,254.064 820.244,243.064 839.5,238.5 Z"/></g>
<g><path style="opacity:1" fill="#ff4501" d="M 450.5,600.5 C 486.823,597.036 510.99,612.369 523,646.5C 529.207,679.915 517.374,704.415 487.5,720C 451.027,731.502 423.527,720.668 405,687.5C 394.353,658.119 400.853,633.285 424.5,613C 432.598,607.45 441.264,603.283 450.5,600.5 Z"/></g>
<g><path style="opacity:1" fill="#ff4501" d="M 724.5,600.5 C 763.719,597.9 788.219,615.566 798,653.5C 801.27,684.21 789.103,706.377 761.5,720C 729.43,731.086 703.597,722.919 684,695.5C 667.857,663.26 673.357,635.427 700.5,612C 707.932,606.782 715.932,602.949 724.5,600.5 Z"/></g>
<g><path style="opacity:1" fill="#ff4602" d="M 457.5,800.5 C 461.182,800.335 464.848,800.501 468.5,801C 476.946,808.111 485.946,814.445 495.5,820C 522.145,832.328 550.145,839.328 579.5,841C 616.808,843.717 653.142,839.051 688.5,827C 693.833,824.667 699.167,822.333 704.5,820C 714.026,814.405 723.026,808.071 731.5,801C 743.631,799.06 750.964,804.06 753.5,816C 753.327,819.872 752.16,823.372 750,826.5C 731.034,845.073 708.534,857.573 682.5,864C 638,875.29 593,877.623 547.5,871C 515.181,866.496 485.848,854.829 459.5,836C 455.298,832.133 451.465,827.967 448,823.5C 444.645,813.051 447.812,805.385 457.5,800.5 Z"/></g>
</svg>
